<?xml version="1.0" encoding="UTF-8"?>
<!DOCTYPE svg PUBLIC "-//W3C//DTD SVG 1.1//EN" "http://www.w3.org/Graphics/SVG/1.1/DTD/svg11.dtd">
<!-- Creator: CorelDRAW 2020 (64 Bit) -->
<svg xmlns="http://www.w3.org/2000/svg" xml:space="preserve" width="39.3455mm" height="35.2693mm" version="1.1" style="shape-rendering:geometricPrecision; text-rendering:geometricPrecision; image-rendering:optimizeQuality; fill-rule:evenodd; clip-rule:evenodd"
viewBox="0 0 1702.38 1526.01"
 xmlns:xlink="http://www.w3.org/1999/xlink"
 xmlns:xodm="http://www.corel.com/coreldraw/odm/2003">
 <defs>
  <style type="text/css">
   <![CDATA[
    .fil0 {fill:#50322A;fill-rule:nonzero}
   ]]>
  </style>
 </defs>
 <g id="Camada_x0020_1">
  <metadata id="CorelCorpID_0Corel-Layer"/>
  <path class="fil0" d="M345.92 1524.9l0 -60.53 12.25 0 0 60.53 -12.25 0zm-151.48 -703.35c13.6,0 24.63,11.03 24.63,24.63 0,13.59 -11.03,24.62 -24.63,24.62l-87.08 0c-13.6,0 -24.63,-11.03 -24.63,-24.62 0,-3.5 0.72,-6.83 2.04,-9.84l302.6 -820.16c3.64,-9.96 13.06,-16.13 23.08,-16.14l0 -0.03 906.75 0c13.61,0 24.63,11.03 24.63,24.63 0,3.92 -0.91,7.62 -2.54,10.9l-0.28 0.68 361.68 978.68 -0.05 0.03c1.11,3.03 1.74,6.37 1.74,9.89l-0 341.86c0,13.56 -9.23,24.54 -20.61,24.54l-216.57 -0.03c-10.05,0 -18.42,-8.58 -20.24,-19.92 -0.55,-1.96 -0.84,-4.04 -0.84,-6.18 0,-22.61 -0.59,-44.14 -1.7,-64.56 -1.07,-19.91 -2.65,-38.99 -4.64,-57.23l-207 0c-1.99,18.22 -3.57,37.31 -4.64,57.21 -1.1,20.43 -1.69,41.96 -1.69,64.57 0,5.89 -2.23,11.25 -5.82,15.13 -3.59,3.87 -8.52,6.26 -13.98,6.26 -5.42,0 -10.35,-2.39 -13.93,-6.27 -3.57,-3.87 -5.78,-9.22 -5.78,-15.11 0,-48.86 2.75,-99.95 9.51,-150.23 5.94,-44.18 15.01,-87.78 28.06,-128.72 14.64,-46.1 32.55,-81.45 50.64,-106.12 21.48,-29.3 43.57,-43.88 61.13,-43.88 17.58,0 39.64,14.59 61.13,43.88 18.09,24.68 36.01,60.02 50.65,106.12 13.06,40.95 22.12,84.54 28.06,128.72 5.72,42.46 8.56,85.49 9.3,127.27l177.73 0.02 0 -312 -346.11 -936.6 -318.52 762.05c-3.93,9.45 -13.08,15.16 -22.71,15.17l0 0.03 -535 0c-13.59,0 -24.63,-11.03 -24.63,-24.62 0,-3.07 0.57,-6.01 1.59,-8.71 -1.99,-5.4 -2.1,-11.53 0.14,-17.32l297.33 -770.87 -285.67 0 -284.92 772.28 51.78 0zm273.56 0l489.46 0 322.8 -772.28 -514.39 0 -297.87 772.28zm-411.98 499.62c-35.12,-42.96 -55.67,-101.86 -55.99,-159.8l-0.03 -0.03c0,-57.04 20.93,-115.94 56.24,-159.15 32.36,-39.59 76.8,-66.07 128.34,-66.07 19.49,0 38.3,3.92 56.03,11.16 18.3,7.49 35.42,18.54 50.82,32.47 4.2,3.76 6.59,8.99 7.05,14.43 0.47,5.42 -0.98,11.05 -4.45,15.58l-0.03 0.02c-0.38,0.48 -0.73,0.91 -1.06,1.29 -3.36,3.7 -7.76,5.84 -12.28,6.3 -4.53,0.45 -9.19,-0.78 -13.12,-3.81 -0.35,-0.28 -0.75,-0.62 -1.19,-1 -11.91,-10.79 -25.06,-19.31 -39.12,-25.08 -13.45,-5.52 -27.75,-8.5 -42.66,-8.5 -40.3,0 -74.72,21.24 -99.89,52.73 -28.37,35.48 -45.05,83.84 -45.37,129.64 0.32,46.36 16.68,94.69 44.92,129.99 25.05,31.3 59.47,52.28 100.34,52.28 14.9,0 29.19,-2.98 42.63,-8.47 14.05,-5.76 27.21,-14.27 39.15,-25.03 0.43,-0.37 0.86,-0.73 1.31,-1.07 3.89,-2.98 8.51,-4.21 13,-3.76 4.5,0.45 8.86,2.55 12.21,6.25 0.43,0.48 0.82,0.94 1.15,1.38 3.47,4.5 4.92,10.12 4.45,15.55 -0.46,5.44 -2.85,10.7 -7.05,14.46 -15.38,13.92 -32.49,24.93 -50.79,32.39 -17.73,7.23 -36.57,11.14 -56.06,11.14 -52.17,0 -96.45,-26.02 -128.56,-65.29zm399.75 -120.72l195.51 0c-2.81,-17.68 -6.05,-34.36 -9.61,-50.01 -4.15,-18.28 -8.74,-35.11 -13.62,-50.47 -12.14,-38.1 -25.59,-67.25 -38.43,-87.52 -14.15,-22.34 -27.05,-33.48 -36.1,-33.48 -9.04,0 -21.94,11.13 -36.09,33.48 -12.83,20.26 -26.29,49.41 -38.42,87.51 -4.89,15.36 -9.47,32.18 -13.63,50.47 -3.56,15.65 -6.79,32.33 -9.61,50.01zm237.59 14.4c6.77,50.29 9.52,101.38 9.52,150.23 0,5.89 -2.22,11.24 -5.8,15.11 -3.57,3.88 -8.49,6.27 -13.91,6.27 -5.46,0 -10.39,-2.39 -13.98,-6.26 -3.59,-3.87 -5.82,-9.23 -5.82,-15.13 0,-22.61 -0.6,-44.14 -1.7,-64.56 -1.07,-19.91 -2.64,-39 -4.65,-57.22l-206.98 0c-1.99,18.22 -3.57,37.31 -4.65,57.21 -1.1,20.43 -1.7,41.96 -1.7,64.57 0,5.89 -2.22,11.25 -5.82,15.13 -3.59,3.87 -8.52,6.26 -13.98,6.26 -5.43,0 -10.35,-2.39 -13.91,-6.27 -3.59,-3.87 -5.8,-9.22 -5.8,-15.11 0,-48.86 2.74,-99.95 9.51,-150.23 5.94,-44.18 15.01,-87.78 28.06,-128.72 14.63,-46.1 32.57,-81.45 50.65,-106.12 21.48,-29.3 43.55,-43.88 61.12,-43.88 17.58,0 39.65,14.59 61.13,43.88 18.09,24.68 36.02,60.02 50.65,106.12 13.05,40.95 22.13,84.54 28.06,128.72zm154.49 134.55c-23.35,-21.13 -39.17,-50.5 -39.48,-86.06 -0.06,-5.88 2.1,-11.22 5.62,-15.11 3.52,-3.89 8.42,-6.32 13.86,-6.38l0.17 0 0.03 -0.02c5.33,0 10.21,2.33 13.76,6.1 3.56,3.78 5.79,9.02 5.86,14.85l0 0.22c0.18,22.97 11.24,41.72 27.19,55.3 19.22,16.39 45.45,25.32 68.61,25.32 20.87,0 45.66,-6.85 64.83,-20.62 15.37,-11.06 27.06,-26.56 29.89,-46.5 3.04,-21.37 -6.2,-38.94 -20.7,-53.01 -22.06,-21.4 -56.1,-34.82 -79.08,-41.49 -33.58,-9.75 -74.35,-28.36 -100.99,-57.52 -20.21,-22.12 -32.35,-50.19 -27.45,-84.91 4.37,-31.23 21.25,-55.81 43.82,-73.17 25.83,-19.88 59.19,-30.27 89.68,-30.27 33.7,0 69.44,13.34 95.63,37.08 23.35,21.15 39.17,50.54 39.47,86.13 0.06,5.88 -2.1,11.22 -5.62,15.11 -3.52,3.89 -8.42,6.32 -13.87,6.38l-0.03 0.03c-5.42,0 -10.37,-2.38 -13.96,-6.23 -3.6,-3.86 -5.84,-9.18 -5.84,-15.06l0.02 0c-0.19,-22.97 -11.25,-41.71 -27.18,-55.29 -19.21,-16.38 -45.42,-25.3 -68.62,-25.3 -20.93,0 -45.69,6.78 -64.77,20.48 -15.29,10.99 -26.88,26.46 -29.68,46.43 -3.02,21.55 6.18,39.21 20.66,53.32 21.92,21.35 55.77,34.77 78.91,41.49 33.57,9.74 74.47,28.26 101.17,57.42 20.18,22.04 32.31,50.06 27.38,84.83l-0.01 0c-4.47,31.26 -21.38,55.87 -43.98,73.25 -25.83,19.87 -59.16,30.27 -89.68,30.27 -33.71,0 -69.43,-13.33 -95.63,-37.06zm388.67 -148.96l195.52 0c-2.81,-17.68 -6.05,-34.36 -9.61,-50.01 -4.16,-18.28 -8.75,-35.11 -13.63,-50.47 -12.14,-38.1 -25.59,-67.25 -38.42,-87.52 -14.16,-22.34 -27.05,-33.48 -36.1,-33.48 -9.05,0 -21.95,11.13 -36.09,33.48 -12.84,20.26 -26.28,49.41 -38.43,87.51 -4.88,15.36 -9.47,32.18 -13.62,50.47 -3.56,15.65 -6.79,32.33 -9.61,50.01zm48.19 -481.78c-13.6,0 -24.63,-11.04 -24.63,-24.64 0,-13.59 11.03,-24.61 24.63,-24.61l26.73 0 0 -48.93c0,-13.6 11.03,-24.63 24.62,-24.63 13.61,0 24.63,11.03 24.63,24.63l0 48.93 26.74 0c13.59,0 24.62,11.02 24.62,24.61 0,13.6 -11.03,24.64 -24.62,24.64l-26.74 0 0 104.73c0,13.6 -11.02,24.63 -24.63,24.63 -13.59,0 -24.62,-11.03 -24.62,-24.63l0 -104.73 -26.73 0zm-869.65 784.01l0 -10.23 26.3 0 0 24.15c-2.55,2.5 -6.27,4.68 -11.12,6.58 -4.85,1.9 -9.77,2.84 -14.75,2.84 -6.33,0 -11.84,-1.32 -16.55,-3.99 -4.69,-2.66 -8.23,-6.48 -10.6,-11.43 -2.36,-4.95 -3.55,-10.34 -3.55,-16.16 0,-6.31 1.32,-11.92 3.95,-16.84 2.65,-4.9 6.51,-8.68 11.6,-11.3 3.89,-2.02 8.71,-3.02 14.47,-3.02 7.52,0 13.4,1.59 17.63,4.75 4.21,3.16 6.93,7.52 8.14,13.1l-12.17 2.29c-0.85,-2.98 -2.46,-5.33 -4.81,-7.07 -2.34,-1.71 -5.27,-2.57 -8.79,-2.57 -5.33,0 -9.57,1.69 -12.71,5.08 -3.15,3.4 -4.72,8.43 -4.72,15.09 0,7.2 1.59,12.6 4.78,16.19 3.2,3.6 7.37,5.4 12.54,5.4 2.55,0 5.11,-0.5 7.68,-1.51 2.58,-1 4.78,-2.23 6.63,-3.66l0 -7.68 -13.96 0zm54.68 22.23l0 -60.53 25.74 0c6.48,0 11.18,0.55 14.11,1.64 2.95,1.09 5.28,3.01 7.04,5.79 1.77,2.79 2.65,5.96 2.65,9.54 0,4.55 -1.33,8.3 -3.99,11.26 -2.66,2.96 -6.64,4.82 -11.94,5.6 2.65,1.54 4.82,3.23 6.52,5.08 1.71,1.84 4.02,5.12 6.93,9.83l7.38 11.81 -14.61 0 -8.77 -13.21c-3.14,-4.69 -5.3,-7.65 -6.47,-8.87 -1.16,-1.22 -2.38,-2.06 -3.68,-2.51 -1.31,-0.45 -3.36,-0.68 -6.18,-0.68l-2.48 0 0 25.28 -12.26 0zm12.26 -34.91l9.04 0c5.86,0 9.51,-0.26 10.98,-0.75 1.45,-0.49 2.6,-1.35 3.42,-2.56 0.84,-1.21 1.24,-2.73 1.24,-4.55 0,-2.04 -0.55,-3.68 -1.64,-4.95 -1.08,-1.25 -2.62,-2.04 -4.59,-2.37 -1,-0.14 -3.98,-0.2 -8.92,-0.2l-9.54 0 0 15.39zm65.86 34.91l0 -60.53 44.82 0 0 10.24 -32.55 0 0 13.43 30.27 0 0 10.23 -30.27 0 0 16.4 33.74 0 0 10.23 -46 0zm95.19 -60.53l12.27 0 0 38.36c0,5.02 -0.44,8.88 -1.33,11.58 -1.18,3.53 -3.32,6.36 -6.43,8.5 -3.11,2.12 -7.2,3.2 -12.31,3.2 -5.98,0 -10.57,-1.66 -13.78,-5.01 -3.23,-3.34 -4.85,-8.24 -4.88,-14.69l11.58 -1.36c0.15,3.46 0.64,5.89 1.51,7.33 1.31,2.17 3.3,3.25 5.97,3.25 2.69,0 4.61,-0.77 5.72,-2.34 1.12,-1.55 1.67,-4.78 1.67,-9.68l0 -39.14zm96.9 60.53l-13.21 0 -5.23 -13.78 -24.28 0 -5.03 13.78 -12.97 0 23.5 -60.53 12.95 0 24.26 60.53zm-22.41 -24l-8.41 -22.4 -8.17 22.4 16.58 0zm66.35 24l0 -60.53 44.82 0 0 10.24 -32.56 0 0 13.43 30.27 0 0 10.23 -30.27 0 0 16.4 33.74 0 0 10.23 -46 0zm73.45 0l0 -60.53 19.6 0c7.42,0 12.25,0.29 14.51,0.9 3.47,0.92 6.37,2.89 8.71,5.93 2.33,3.05 3.51,6.98 3.51,11.79 0,3.73 -0.68,6.84 -2.02,9.37 -1.35,2.54 -3.06,4.53 -5.13,5.98 -2.07,1.44 -4.19,2.4 -6.33,2.86 -2.92,0.58 -7.13,0.88 -12.65,0.88l-7.95 0 0 22.82 -12.27 0zm12.27 -50.29l0 17.24 6.65 0c4.81,0 8,-0.32 9.64,-0.96 1.62,-0.63 2.89,-1.62 3.79,-2.98 0.92,-1.35 1.39,-2.92 1.39,-4.72 0,-2.21 -0.65,-4.03 -1.93,-5.47 -1.3,-1.44 -2.92,-2.34 -4.91,-2.71 -1.45,-0.26 -4.37,-0.4 -8.76,-0.4l-5.88 0zm60.77 50.29l0 -60.53 12.26 0 0 60.53 -12.26 0zm37.76 -19.61l11.92 -1.19c0.72,3.99 2.15,6.91 4.34,8.78 2.18,1.87 5.14,2.81 8.84,2.81 3.91,0 6.88,-0.84 8.86,-2.5 1.99,-1.67 2.99,-3.61 2.99,-5.84 0,-1.44 -0.43,-2.65 -1.26,-3.66 -0.83,-1 -2.29,-1.87 -4.38,-2.61 -1.42,-0.51 -4.66,-1.38 -9.74,-2.65 -6.52,-1.63 -11.1,-3.63 -13.73,-6.01 -3.71,-3.34 -5.55,-7.41 -5.55,-12.22 0,-3.08 0.87,-5.99 2.6,-8.68 1.74,-2.7 4.26,-4.73 7.54,-6.14 3.28,-1.41 7.23,-2.12 11.88,-2.12 7.56,0 13.27,1.68 17.09,5.05 3.84,3.36 5.84,7.84 6.03,13.47l-12.26 0.42c-0.52,-3.13 -1.64,-5.37 -3.34,-6.73 -1.7,-1.37 -4.27,-2.06 -7.68,-2.06 -3.52,0 -6.28,0.73 -8.26,2.19 -1.28,0.95 -1.93,2.21 -1.93,3.79 0,1.42 0.61,2.66 1.81,3.68 1.54,1.31 5.28,2.66 11.21,4.07 5.93,1.4 10.31,2.86 13.15,4.36 2.85,1.51 5.07,3.55 6.68,6.16 1.61,2.6 2.41,5.82 2.41,9.64 0,3.47 -0.96,6.72 -2.89,9.74 -1.94,3.03 -4.65,5.28 -8.18,6.76 -3.52,1.48 -7.91,2.21 -13.17,2.21 -7.66,0 -13.53,-1.76 -17.63,-5.3 -4.11,-3.53 -6.55,-8.67 -7.35,-15.42zm115.4 -2.71l11.84 3.63c-1.83,6.67 -4.85,11.62 -9.08,14.85 -4.22,3.23 -9.58,4.85 -16.07,4.85 -8.06,0 -14.66,-2.76 -19.85,-8.24 -5.17,-5.5 -7.77,-13.01 -7.77,-22.55 0,-10.07 2.61,-17.91 7.81,-23.49 5.2,-5.58 12.05,-8.37 20.53,-8.37 7.42,0 13.43,2.2 18.05,6.59 2.76,2.59 4.82,6.3 6.2,11.18l-12.09 2.87c-0.71,-3.13 -2.21,-5.61 -4.47,-7.43 -2.29,-1.81 -5.05,-2.71 -8.29,-2.71 -4.49,0 -8.14,1.61 -10.93,4.83 -2.81,3.21 -4.2,8.42 -4.2,15.64 0,7.64 1.38,13.1 4.13,16.33 2.76,3.25 6.34,4.88 10.75,4.88 3.26,0 6.06,-1.03 8.4,-3.09 2.34,-2.08 4.03,-5.32 5.05,-9.76zm36.86 -7.58c0,-6.17 0.94,-11.36 2.79,-15.56 1.36,-3.09 3.25,-5.87 5.62,-8.32 2.38,-2.45 5,-4.27 7.83,-5.46 3.77,-1.59 8.12,-2.4 13.05,-2.4 8.94,0 16.07,2.78 21.44,8.32 5.36,5.55 8.03,13.25 8.03,23.14 0,9.79 -2.67,17.45 -7.97,22.98 -5.33,5.54 -12.44,8.3 -21.34,8.3 -9,0 -16.18,-2.75 -21.48,-8.26 -5.32,-5.5 -7.98,-13.08 -7.98,-22.75zm12.6 -0.41c0,6.86 1.6,12.06 4.76,15.61 3.17,3.53 7.2,5.31 12.08,5.31 4.89,0 8.88,-1.75 12.04,-5.27 3.12,-3.53 4.69,-8.79 4.69,-15.83 0,-6.95 -1.51,-12.13 -4.58,-15.54 -3.04,-3.42 -7.09,-5.13 -12.15,-5.13 -5.04,0 -9.11,1.73 -12.2,5.18 -3.09,3.46 -4.64,8.68 -4.64,15.66zm72.78 30.3l0 -60.53 19.6 0c7.43,0 12.27,0.29 14.51,0.9 3.47,0.92 6.37,2.89 8.71,5.93 2.34,3.05 3.51,6.98 3.51,11.79 0,3.73 -0.67,6.84 -2.02,9.37 -1.35,2.54 -3.06,4.53 -5.13,5.98 -2.07,1.44 -4.18,2.4 -6.32,2.86 -2.92,0.58 -7.13,0.88 -12.66,0.88l-7.94 0 0 22.82 -12.26 0zm12.26 -50.29l0 17.24 6.66 0c4.81,0 8,-0.32 9.63,-0.96 1.62,-0.63 2.89,-1.62 3.8,-2.98 0.92,-1.35 1.38,-2.92 1.38,-4.72 0,-2.21 -0.64,-4.03 -1.94,-5.47 -1.29,-1.44 -2.9,-2.34 -4.89,-2.71 -1.45,-0.26 -4.37,-0.4 -8.77,-0.4l-5.87 0zm109.45 50.29l-13.21 0 -5.23 -13.78 -24.27 0 -5.04 13.78 -12.97 0 23.5 -60.53 12.96 0 24.25 60.53zm-22.4 -24l-8.42 -22.4 -8.17 22.4 16.59 0zm46.33 24l0 -60.02 12.26 0 0 49.8 30.35 0 0 10.23 -42.61 0z"/>
 </g>
</svg>
