<?xml version="1.0" encoding="UTF-8" standalone="no" ?>
<!DOCTYPE svg PUBLIC "-//W3C//DTD SVG 1.1//EN" "http://www.w3.org/Graphics/SVG/1.1/DTD/svg11.dtd">
<svg xmlns="http://www.w3.org/2000/svg" xmlns:xlink="http://www.w3.org/1999/xlink" version="1.1" width="1080" height="1080" viewBox="0 0 1080 1080" xml:space="preserve">
<desc>Created with Fabric.js 5.2.4</desc>
<defs>
</defs>
<g transform="matrix(1 0 0 1 540 540)" id="d118e8a1-f8c7-4837-88de-1a66c98acbb8"  >
<rect style="stroke: none; stroke-width: 1; stroke-dasharray: none; stroke-linecap: butt; stroke-dashoffset: 0; stroke-linejoin: miter; stroke-miterlimit: 4; fill: rgb(255,255,255); fill-rule: nonzero; opacity: 1; visibility: hidden;" vector-effect="non-scaling-stroke"  x="-540" y="-540" rx="0" ry="0" width="1080" height="1080" />
</g>
<g transform="matrix(1 0 0 1 540 540)" id="97b5307f-b272-4e7d-9088-f6c1b1cecd35"  >
</g>
<g transform="matrix(1 0 0 1 540 540)" id="e2f19334-7dca-41de-aaf8-c13984b36b46"  >
<path style="stroke: rgb(0,0,0); stroke-width: 0; stroke-dasharray: none; stroke-linecap: butt; stroke-dashoffset: 0; stroke-linejoin: miter; stroke-miterlimit: 4; fill: rgb(255,255,255); fill-rule: nonzero; opacity: 1;" vector-effect="non-scaling-stroke"  transform=" translate(-851.19, -763.01)" d="M 345.92 1524.9 L 345.92 1464.3700000000001 L 358.17 1464.3700000000001 L 358.17 1524.9 L 345.92 1524.9 z M 194.44000000000003 821.5500000000001 C 208.04000000000002 821.5500000000001 219.07000000000002 832.58 219.07000000000002 846.1800000000001 C 219.07000000000002 859.7700000000001 208.04000000000002 870.8000000000001 194.44000000000003 870.8000000000001 L 107.36000000000003 870.8000000000001 C 93.76000000000003 870.8000000000001 82.73000000000003 859.7700000000001 82.73000000000003 846.1800000000001 C 82.73000000000003 842.6800000000001 83.45000000000003 839.35 84.77000000000004 836.34 L 387.37000000000006 16.180000000000064 C 391.01000000000005 6.220000000000063 400.43000000000006 0.05000000000006466 410.45000000000005 0.040000000000063096 L 410.45000000000005 0.010000000000063097 L 1317.2 0.010000000000063097 C 1330.81 0.010000000000063097 1341.8300000000002 11.040000000000063 1341.8300000000002 24.64000000000006 C 1341.8300000000002 28.56000000000006 1340.92 32.26000000000006 1339.2900000000002 35.54000000000006 L 1339.0100000000002 36.22000000000006 L 1700.6900000000003 1014.9 L 1700.6400000000003 1014.93 C 1701.7500000000002 1017.9599999999999 1702.3800000000003 1021.3 1702.3800000000003 1024.82 L 1702.3800000000003 1366.6799999999998 C 1702.3800000000003 1380.2399999999998 1693.1500000000003 1391.2199999999998 1681.7700000000004 1391.2199999999998 L 1465.2000000000005 1391.1899999999998 C 1455.1500000000005 1391.1899999999998 1446.7800000000004 1382.61 1444.9600000000005 1371.2699999999998 C 1444.4100000000005 1369.3099999999997 1444.1200000000006 1367.2299999999998 1444.1200000000006 1365.0899999999997 C 1444.1200000000006 1342.4799999999998 1443.5300000000007 1320.9499999999996 1442.4200000000005 1300.5299999999997 C 1441.3500000000006 1280.6199999999997 1439.7700000000004 1261.5399999999997 1437.7800000000004 1243.2999999999997 L 1230.7800000000004 1243.2999999999997 C 1228.7900000000004 1261.5199999999998 1227.2100000000005 1280.6099999999997 1226.1400000000003 1300.5099999999998 C 1225.0400000000004 1320.9399999999998 1224.4500000000003 1342.4699999999998 1224.4500000000003 1365.0799999999997 C 1224.4500000000003 1370.9699999999998 1222.2200000000003 1376.3299999999997 1218.6300000000003 1380.2099999999998 C 1215.0400000000004 1384.0799999999997 1210.1100000000004 1386.4699999999998 1204.6500000000003 1386.4699999999998 C 1199.2300000000002 1386.4699999999998 1194.3000000000004 1384.0799999999997 1190.7200000000003 1380.1999999999998 C 1187.1500000000003 1376.33 1184.9400000000003 1370.9799999999998 1184.9400000000003 1365.09 C 1184.9400000000003 1316.23 1187.6900000000003 1265.1399999999999 1194.4500000000003 1214.86 C 1200.3900000000003 1170.6799999999998 1209.4600000000003 1127.08 1222.5100000000002 1086.1399999999999 C 1237.1500000000003 1040.04 1255.0600000000002 1004.6899999999998 1273.1500000000003 980.0199999999999 C 1294.6300000000003 950.7199999999999 1316.7200000000003 936.1399999999999 1334.2800000000004 936.1399999999999 C 1351.8600000000004 936.1399999999999 1373.9200000000005 950.7299999999999 1395.4100000000005 980.0199999999999 C 1413.5000000000005 1004.6999999999998 1431.4200000000005 1040.04 1446.0600000000006 1086.1399999999999 C 1459.1200000000006 1127.09 1468.1800000000005 1170.6799999999998 1474.1200000000006 1214.86 C 1479.8400000000006 1257.32 1482.6800000000005 1300.35 1483.4200000000005 1342.1299999999999 L 1661.1500000000005 1342.1499999999999 L 1661.1500000000005 1030.1499999999999 L 1315.0400000000004 93.54999999999984 L 996.5200000000004 855.5999999999998 C 992.5900000000005 865.0499999999998 983.4400000000004 870.7599999999998 973.8100000000004 870.7699999999998 L 973.8100000000004 870.7999999999997 L 438.8100000000004 870.7999999999997 C 425.2200000000004 870.7999999999997 414.1800000000004 859.7699999999998 414.1800000000004 846.1799999999997 C 414.1800000000004 843.1099999999997 414.7500000000004 840.1699999999997 415.7700000000004 837.4699999999997 C 413.78000000000037 832.0699999999997 413.67000000000036 825.9399999999997 415.91000000000037 820.1499999999996 L 713.2400000000004 49.27999999999963 L 427.57000000000033 49.27999999999963 L 142.65000000000032 821.5599999999996 L 194.43000000000032 821.5599999999996 z M 468 821.5500000000001 L 957.46 821.5500000000001 L 1280.26 49.270000000000095 L 765.87 49.270000000000095 L 468 821.5500000000001 z M 56.01999999999998 1321.17 C 20.899999999999984 1278.21 0.3499999999999801 1219.3100000000002 0.02999999999997982 1161.3700000000001 L -2.017830347256222e-14 1161.3400000000001 C -2.017830347256222e-14 1104.3000000000002 20.92999999999998 1045.4 56.23999999999998 1002.1900000000002 C 88.59999999999998 962.6000000000001 133.03999999999996 936.1200000000001 184.57999999999998 936.1200000000001 C 204.07 936.1200000000001 222.88 940.0400000000001 240.60999999999999 947.2800000000001 C 258.90999999999997 954.7700000000001 276.03 965.82 291.43 979.7500000000001 C 295.63 983.5100000000001 298.02 988.7400000000001 298.48 994.1800000000001 C 298.95000000000005 999.6 297.5 1005.23 294.03000000000003 1009.7600000000001 L 294.00000000000006 1009.7800000000001 C 293.62000000000006 1010.2600000000001 293.27000000000004 1010.69 292.94000000000005 1011.07 C 289.58000000000004 1014.7700000000001 285.18000000000006 1016.9100000000001 280.6600000000001 1017.37 C 276.1300000000001 1017.82 271.4700000000001 1016.59 267.5400000000001 1013.5600000000001 C 267.19000000000005 1013.2800000000001 266.7900000000001 1012.94 266.3500000000001 1012.5600000000001 C 254.44000000000008 1001.7700000000001 241.29000000000008 993.2500000000001 227.23000000000008 987.48 C 213.7800000000001 981.96 199.48000000000008 978.98 184.57000000000008 978.98 C 144.2700000000001 978.98 109.85000000000008 1000.22 84.68000000000008 1031.71 C 56.31000000000007 1067.19 39.63000000000008 1115.55 39.31000000000008 1161.35 C 39.63000000000008 1207.7099999999998 55.99000000000008 1256.04 84.23000000000008 1291.34 C 109.28000000000007 1322.6399999999999 143.70000000000007 1343.62 184.57000000000008 1343.62 C 199.47000000000008 1343.62 213.76000000000008 1340.6399999999999 227.20000000000007 1335.1499999999999 C 241.25000000000009 1329.3899999999999 254.41000000000008 1320.8799999999999 266.3500000000001 1310.12 C 266.7800000000001 1309.75 267.2100000000001 1309.3899999999999 267.6600000000001 1309.05 C 271.55000000000007 1306.07 276.1700000000001 1304.84 280.6600000000001 1305.29 C 285.1600000000001 1305.74 289.5200000000001 1307.84 292.87000000000006 1311.54 C 293.30000000000007 1312.02 293.69000000000005 1312.48 294.02000000000004 1312.92 C 297.49000000000007 1317.42 298.94000000000005 1323.04 298.47 1328.47 C 298.01000000000005 1333.91 295.62 1339.17 291.42 1342.93 C 276.04 1356.8500000000001 258.93 1367.8600000000001 240.63000000000002 1375.3200000000002 C 222.90000000000003 1382.5500000000002 204.06000000000003 1386.4600000000003 184.57000000000002 1386.4600000000003 C 132.40000000000003 1386.4600000000003 88.12000000000002 1360.4400000000003 56.01000000000002 1321.1700000000003 z M 455.77 1200.45 L 651.28 1200.45 C 648.47 1182.77 645.23 1166.0900000000001 641.67 1150.44 C 637.52 1132.16 632.93 1115.3300000000002 628.05 1099.97 C 615.91 1061.8700000000001 602.4599999999999 1032.72 589.62 1012.45 C 575.47 990.11 562.57 978.97 553.52 978.97 C 544.48 978.97 531.5799999999999 990.1 517.43 1012.45 C 504.59999999999997 1032.71 491.13999999999993 1061.8600000000001 479.00999999999993 1099.96 C 474.11999999999995 1115.32 469.5399999999999 1132.14 465.37999999999994 1150.43 C 461.81999999999994 1166.0800000000002 458.5899999999999 1182.76 455.7699999999999 1200.44 z M 693.36 1214.8500000000001 C 700.13 1265.14 702.88 1316.23 702.88 1365.0800000000002 C 702.88 1370.9700000000003 700.66 1376.3200000000002 697.08 1380.19 C 693.51 1384.0700000000002 688.59 1386.46 683.1700000000001 1386.46 C 677.71 1386.46 672.7800000000001 1384.07 669.19 1380.2 C 665.6 1376.3300000000002 663.37 1370.97 663.37 1365.07 C 663.37 1342.46 662.77 1320.9299999999998 661.67 1300.51 C 660.5999999999999 1280.6 659.03 1261.51 657.02 1243.29 L 450.03999999999996 1243.29 C 448.04999999999995 1261.51 446.46999999999997 1280.6 445.39 1300.5 C 444.28999999999996 1320.93 443.69 1342.46 443.69 1365.07 C 443.69 1370.96 441.46999999999997 1376.32 437.87 1380.2 C 434.28000000000003 1384.07 429.35 1386.46 423.89 1386.46 C 418.46 1386.46 413.53999999999996 1384.07 409.97999999999996 1380.19 C 406.39 1376.3200000000002 404.17999999999995 1370.97 404.17999999999995 1365.0800000000002 C 404.17999999999995 1316.2200000000003 406.91999999999996 1265.13 413.68999999999994 1214.8500000000001 C 419.62999999999994 1170.67 428.69999999999993 1127.0700000000002 441.74999999999994 1086.13 C 456.37999999999994 1040.0300000000002 474.31999999999994 1004.6800000000001 492.3999999999999 980.0100000000001 C 513.8799999999999 950.7100000000002 535.9499999999999 936.1300000000001 553.5199999999999 936.1300000000001 C 571.0999999999999 936.1300000000001 593.1699999999998 950.7200000000001 614.6499999999999 980.0100000000001 C 632.7399999999999 1004.69 650.6699999999998 1040.0300000000002 665.2999999999998 1086.13 C 678.3499999999998 1127.0800000000002 687.4299999999998 1170.67 693.3599999999998 1214.8500000000001 z M 847.85 1349.4 C 824.5 1328.27 808.6800000000001 1298.9 808.37 1263.3400000000001 C 808.3100000000001 1257.46 810.47 1252.1200000000001 813.99 1248.2300000000002 C 817.51 1244.3400000000001 822.41 1241.9100000000003 827.85 1241.8500000000001 L 828.02 1241.8500000000001 L 828.05 1241.8300000000002 C 833.38 1241.8300000000002 838.26 1244.16 841.81 1247.93 C 845.3699999999999 1251.71 847.5999999999999 1256.95 847.67 1262.78 L 847.67 1263 C 847.8499999999999 1285.97 858.91 1304.72 874.86 1318.3 C 894.08 1334.69 920.3100000000001 1343.62 943.47 1343.62 C 964.34 1343.62 989.13 1336.77 1008.3000000000001 1323 C 1023.6700000000001 1311.94 1035.3600000000001 1296.44 1038.19 1276.5 C 1041.23 1255.13 1031.99 1237.56 1017.49 1223.49 C 995.4300000000001 1202.09 961.39 1188.67 938.41 1182 C 904.8299999999999 1172.25 864.06 1153.64 837.42 1124.48 C 817.2099999999999 1102.3600000000001 805.0699999999999 1074.29 809.9699999999999 1039.57 C 814.3399999999999 1008.3399999999999 831.2199999999999 983.76 853.79 966.4 C 879.62 946.52 912.98 936.13 943.47 936.13 C 977.1700000000001 936.13 1012.9100000000001 949.47 1039.1 973.21 C 1062.4499999999998 994.36 1078.27 1023.75 1078.57 1059.3400000000001 C 1078.6299999999999 1065.2200000000003 1076.47 1070.5600000000002 1072.95 1074.45 C 1069.43 1078.3400000000001 1064.53 1080.77 1059.0800000000002 1080.8300000000002 L 1059.0500000000002 1080.8600000000001 C 1053.63 1080.8600000000001 1048.6800000000003 1078.48 1045.0900000000001 1074.63 C 1041.4900000000002 1070.7700000000002 1039.2500000000002 1065.45 1039.2500000000002 1059.5700000000002 L 1039.2700000000002 1059.5700000000002 C 1039.0800000000002 1036.6000000000001 1028.0200000000002 1017.8600000000001 1012.0900000000003 1004.2800000000002 C 992.8800000000002 987.9000000000002 966.6700000000003 978.9800000000002 943.4700000000003 978.9800000000002 C 922.5400000000003 978.9800000000002 897.7800000000002 985.7600000000002 878.7000000000003 999.4600000000003 C 863.4100000000003 1010.4500000000003 851.8200000000003 1025.9200000000003 849.0200000000003 1045.8900000000003 C 846.0000000000003 1067.4400000000003 855.2000000000003 1085.1000000000004 869.6800000000003 1099.2100000000003 C 891.6000000000003 1120.5600000000002 925.4500000000003 1133.9800000000002 948.5900000000003 1140.7000000000003 C 982.1600000000003 1150.4400000000003 1023.0600000000003 1168.9600000000003 1049.7600000000002 1198.1200000000003 C 1069.9400000000003 1220.1600000000003 1082.0700000000002 1248.1800000000003 1077.1400000000003 1282.9500000000003 L 1077.1300000000003 1282.9500000000003 C 1072.6600000000003 1314.2100000000003 1055.7500000000002 1338.8200000000002 1033.1500000000003 1356.2000000000003 C 1007.3200000000003 1376.0700000000002 973.9900000000004 1386.4700000000003 943.4700000000003 1386.4700000000003 C 909.7600000000002 1386.4700000000003 874.0400000000002 1373.1400000000003 847.8400000000003 1349.4100000000003 z M 1236.52 1200.44 L 1432.04 1200.44 C 1429.23 1182.76 1425.99 1166.0800000000002 1422.43 1150.43 C 1418.27 1132.15 1413.68 1115.3200000000002 1408.8 1099.96 C 1396.6599999999999 1061.8600000000001 1383.21 1032.71 1370.3799999999999 1012.44 C 1356.2199999999998 990.1 1343.33 978.96 1334.28 978.96 C 1325.23 978.96 1312.33 990.09 1298.19 1012.44 C 1285.3500000000001 1032.7 1271.91 1061.8500000000001 1259.76 1099.95 C 1254.8799999999999 1115.31 1250.29 1132.13 1246.14 1150.42 C 1242.5800000000002 1166.0700000000002 1239.3500000000001 1182.75 1236.5300000000002 1200.43 z M 1284.71 718.6600000000001 C 1271.1100000000001 718.6600000000001 1260.08 707.6200000000001 1260.08 694.0200000000001 C 1260.08 680.4300000000001 1271.11 669.4100000000001 1284.71 669.4100000000001 L 1311.44 669.4100000000001 L 1311.44 620.4800000000001 C 1311.44 606.8800000000001 1322.47 595.8500000000001 1336.06 595.8500000000001 C 1349.6699999999998 595.8500000000001 1360.69 606.8800000000001 1360.69 620.4800000000001 L 1360.69 669.4100000000001 L 1387.43 669.4100000000001 C 1401.02 669.4100000000001 1412.05 680.4300000000001 1412.05 694.0200000000001 C 1412.05 707.6200000000001 1401.02 718.6600000000001 1387.43 718.6600000000001 L 1360.69 718.6600000000001 L 1360.69 823.3900000000001 C 1360.69 836.9900000000001 1349.67 848.0200000000001 1336.06 848.0200000000001 C 1322.47 848.0200000000001 1311.44 836.9900000000001 1311.44 823.3900000000001 L 1311.44 718.6600000000001 L 1284.71 718.6600000000001 z M 415.06000000000006 1502.67 L 415.06000000000006 1492.44 L 441.36000000000007 1492.44 L 441.36000000000007 1516.5900000000001 C 438.81000000000006 1519.0900000000001 435.0900000000001 1521.2700000000002 430.24000000000007 1523.17 C 425.39000000000004 1525.0700000000002 420.4700000000001 1526.01 415.49000000000007 1526.01 C 409.1600000000001 1526.01 403.6500000000001 1524.69 398.94000000000005 1522.02 C 394.25000000000006 1519.36 390.71000000000004 1515.54 388.34000000000003 1510.59 C 385.98 1505.6399999999999 384.79 1500.25 384.79 1494.4299999999998 C 384.79 1488.12 386.11 1482.5099999999998 388.74 1477.59 C 391.39 1472.6899999999998 395.25 1468.9099999999999 400.34000000000003 1466.29 C 404.23 1464.27 409.05 1463.27 414.81000000000006 1463.27 C 422.33000000000004 1463.27 428.21000000000004 1464.86 432.44000000000005 1468.02 C 436.65000000000003 1471.18 439.37000000000006 1475.54 440.58000000000004 1481.12 L 428.41 1483.4099999999999 C 427.56 1480.4299999999998 425.95000000000005 1478.08 423.6 1476.34 C 421.26000000000005 1474.6299999999999 418.33000000000004 1473.77 414.81 1473.77 C 409.48 1473.77 405.24 1475.46 402.1 1478.85 C 398.95000000000005 1482.25 397.38 1487.28 397.38 1493.9399999999998 C 397.38 1501.1399999999999 398.96999999999997 1506.5399999999997 402.15999999999997 1510.1299999999999 C 405.35999999999996 1513.7299999999998 409.53 1515.53 414.7 1515.53 C 417.25 1515.53 419.81 1515.03 422.38 1514.02 C 424.96 1513.02 427.15999999999997 1511.79 429.01 1510.36 L 429.01 1502.6799999999998 L 415.05 1502.6799999999998 z M 469.74000000000007 1524.9 L 469.74000000000007 1464.3700000000001 L 495.4800000000001 1464.3700000000001 C 501.9600000000001 1464.3700000000001 506.6600000000001 1464.92 509.5900000000001 1466.0100000000002 C 512.5400000000001 1467.1000000000001 514.8700000000001 1469.0200000000002 516.6300000000001 1471.8000000000002 C 518.4000000000001 1474.5900000000001 519.2800000000001 1477.7600000000002 519.2800000000001 1481.3400000000001 C 519.2800000000001 1485.89 517.95 1489.64 515.2900000000001 1492.6000000000001 C 512.6300000000001 1495.5600000000002 508.6500000000001 1497.42 503.3500000000001 1498.2 C 506.00000000000006 1499.74 508.1700000000001 1501.43 509.87000000000006 1503.28 C 511.58000000000004 1505.12 513.8900000000001 1508.3999999999999 516.8000000000001 1513.11 L 524.1800000000001 1524.9199999999998 L 509.57000000000005 1524.9199999999998 L 500.80000000000007 1511.7099999999998 C 497.6600000000001 1507.0199999999998 495.50000000000006 1504.0599999999997 494.33000000000004 1502.84 C 493.17 1501.62 491.95000000000005 1500.78 490.65000000000003 1500.33 C 489.34000000000003 1499.8799999999999 487.29 1499.6499999999999 484.47 1499.6499999999999 L 481.99 1499.6499999999999 L 481.99 1524.9299999999998 L 469.73 1524.9299999999998 z M 482.00000000000006 1489.99 L 491.0400000000001 1489.99 C 496.9000000000001 1489.99 500.55000000000007 1489.73 502.0200000000001 1489.24 C 503.4700000000001 1488.75 504.6200000000001 1487.89 505.4400000000001 1486.68 C 506.2800000000001 1485.47 506.6800000000001 1483.95 506.6800000000001 1482.13 C 506.6800000000001 1480.0900000000001 506.1300000000001 1478.45 505.04000000000013 1477.18 C 503.96000000000015 1475.93 502.42000000000013 1475.14 500.45000000000016 1474.8100000000002 C 499.45000000000016 1474.67 496.47000000000014 1474.6100000000001 491.53000000000014 1474.6100000000001 L 481.9900000000001 1474.6100000000001 L 481.9900000000001 1490.0000000000002 z M 547.86 1524.9 L 547.86 1464.3700000000001 L 592.6800000000001 1464.3700000000001 L 592.6800000000001 1474.6100000000001 L 560.1300000000001 1474.6100000000001 L 560.1300000000001 1488.0400000000002 L 590.4000000000001 1488.0400000000002 L 590.4000000000001 1498.2700000000002 L 560.1300000000001 1498.2700000000002 L 560.1300000000001 1514.6700000000003 L 593.8700000000001 1514.6700000000003 L 593.8700000000001 1524.9000000000003 L 547.8700000000001 1524.9000000000003 z M 643.05 1464.3700000000001 L 655.3199999999999 1464.3700000000001 L 655.3199999999999 1502.73 C 655.3199999999999 1507.75 654.8799999999999 1511.6100000000001 653.9899999999999 1514.31 C 652.81 1517.84 650.6699999999998 1520.6699999999998 647.56 1522.81 C 644.4499999999999 1524.9299999999998 640.3599999999999 1526.01 635.25 1526.01 C 629.27 1526.01 624.68 1524.35 621.47 1521 C 618.24 1517.66 616.62 1512.76 616.59 1506.31 L 628.1700000000001 1504.95 C 628.32 1508.41 628.8100000000001 1510.8400000000001 629.6800000000001 1512.28 C 630.99 1514.45 632.98 1515.53 635.6500000000001 1515.53 C 638.3400000000001 1515.53 640.2600000000001 1514.76 641.3700000000001 1513.19 C 642.4900000000001 1511.64 643.0400000000001 1508.41 643.0400000000001 1503.51 L 643.0400000000001 1464.37 z M 739.9499999999999 1524.9 L 726.7399999999999 1524.9 L 721.5099999999999 1511.1200000000001 L 697.2299999999999 1511.1200000000001 L 692.1999999999999 1524.9 L 679.2299999999999 1524.9 L 702.7299999999999 1464.3700000000001 L 715.68 1464.3700000000001 L 739.9399999999999 1524.9 z M 717.54 1500.9 L 709.13 1478.5 L 700.96 1500.9 L 717.5400000000001 1500.9 z M 783.89 1524.9 L 783.89 1464.3700000000001 L 828.71 1464.3700000000001 L 828.71 1474.6100000000001 L 796.1500000000001 1474.6100000000001 L 796.1500000000001 1488.0400000000002 L 826.4200000000001 1488.0400000000002 L 826.4200000000001 1498.2700000000002 L 796.1500000000001 1498.2700000000002 L 796.1500000000001 1514.6700000000003 L 829.8900000000001 1514.6700000000003 L 829.8900000000001 1524.9000000000003 L 783.8900000000001 1524.9000000000003 z M 857.34 1524.9 L 857.34 1464.3700000000001 L 876.94 1464.3700000000001 C 884.36 1464.3700000000001 889.19 1464.66 891.45 1465.2700000000002 C 894.9200000000001 1466.1900000000003 897.82 1468.1600000000003 900.1600000000001 1471.2000000000003 C 902.4900000000001 1474.2500000000002 903.6700000000001 1478.1800000000003 903.6700000000001 1482.9900000000002 C 903.6700000000001 1486.7200000000003 902.9900000000001 1489.8300000000002 901.6500000000001 1492.3600000000001 C 900.3000000000001 1494.9 898.5900000000001 1496.89 896.5200000000001 1498.3400000000001 C 894.45 1499.7800000000002 892.33 1500.7400000000002 890.19 1501.2 C 887.2700000000001 1501.78 883.0600000000001 1502.0800000000002 877.5400000000001 1502.0800000000002 L 869.59 1502.0800000000002 L 869.59 1524.9 L 857.32 1524.9 z M 869.61 1474.6100000000001 L 869.61 1491.8500000000001 L 876.26 1491.8500000000001 C 881.0699999999999 1491.8500000000001 884.26 1491.5300000000002 885.9 1490.89 C 887.52 1490.26 888.79 1489.2700000000002 889.6899999999999 1487.91 C 890.6099999999999 1486.5600000000002 891.0799999999999 1484.99 891.0799999999999 1483.19 C 891.0799999999999 1480.98 890.43 1479.16 889.15 1477.72 C 887.85 1476.28 886.23 1475.38 884.24 1475.01 C 882.79 1474.75 879.87 1474.61 875.48 1474.61 L 869.6 1474.61 z M 930.38 1524.9 L 930.38 1464.3700000000001 L 942.64 1464.3700000000001 L 942.64 1524.9 L 930.38 1524.9 z M 968.14 1505.2900000000002 L 980.06 1504.1000000000001 C 980.78 1508.0900000000001 982.2099999999999 1511.0100000000002 984.4 1512.88 C 986.5799999999999 1514.75 989.54 1515.69 993.24 1515.69 C 997.15 1515.69 1000.12 1514.8500000000001 1002.1 1513.19 C 1004.09 1511.52 1005.09 1509.5800000000002 1005.09 1507.3500000000001 C 1005.09 1505.91 1004.6600000000001 1504.7 1003.83 1503.69 C 1003 1502.69 1001.5400000000001 1501.8200000000002 999.45 1501.0800000000002 C 998.0300000000001 1500.5700000000002 994.7900000000001 1499.7 989.71 1498.43 C 983.19 1496.8 978.61 1494.8 975.98 1492.42 C 972.27 1489.0800000000002 970.4300000000001 1485.01 970.4300000000001 1480.2 C 970.4300000000001 1477.1200000000001 971.3000000000001 1474.21 973.0300000000001 1471.52 C 974.7700000000001 1468.82 977.2900000000001 1466.79 980.57 1465.3799999999999 C 983.85 1463.9699999999998 987.8000000000001 1463.26 992.45 1463.26 C 1000.01 1463.26 1005.72 1464.94 1009.5400000000001 1468.31 C 1013.3800000000001 1471.6699999999998 1015.3800000000001 1476.1499999999999 1015.57 1481.78 L 1003.3100000000001 1482.2 C 1002.7900000000001 1479.07 1001.6700000000001 1476.8300000000002 999.97 1475.47 C 998.27 1474.1000000000001 995.7 1473.41 992.2900000000001 1473.41 C 988.7700000000001 1473.41 986.0100000000001 1474.14 984.0300000000001 1475.6000000000001 C 982.7500000000001 1476.5500000000002 982.1000000000001 1477.8100000000002 982.1000000000001 1479.39 C 982.1000000000001 1480.8100000000002 982.7100000000002 1482.0500000000002 983.9100000000001 1483.0700000000002 C 985.45 1484.38 989.19 1485.7300000000002 995.1200000000001 1487.14 C 1001.0500000000001 1488.5400000000002 1005.4300000000001 1490 1008.2700000000001 1491.5 C 1011.1200000000001 1493.01 1013.3400000000001 1495.05 1014.95 1497.66 C 1016.5600000000001 1500.26 1017.36 1503.48 1017.36 1507.3000000000002 C 1017.36 1510.7700000000002 1016.4 1514.0200000000002 1014.47 1517.0400000000002 C 1012.53 1520.0700000000002 1009.82 1522.3200000000002 1006.2900000000001 1523.8000000000002 C 1002.7700000000001 1525.2800000000002 998.3800000000001 1526.0100000000002 993.1200000000001 1526.0100000000002 C 985.4600000000002 1526.0100000000002 979.5900000000001 1524.2500000000002 975.4900000000001 1520.7100000000003 C 971.3800000000001 1517.1800000000003 968.9400000000002 1512.0400000000002 968.1400000000001 1505.2900000000002 z M 1083.54 1502.5800000000002 L 1095.3799999999999 1506.2100000000003 C 1093.55 1512.8800000000003 1090.53 1517.8300000000002 1086.3 1521.0600000000002 C 1082.08 1524.2900000000002 1076.72 1525.91 1070.23 1525.91 C 1062.17 1525.91 1055.57 1523.15 1050.38 1517.67 C 1045.21 1512.17 1042.6100000000001 1504.66 1042.6100000000001 1495.1200000000001 C 1042.6100000000001 1485.0500000000002 1045.22 1477.21 1050.42 1471.63 C 1055.6200000000001 1466.0500000000002 1062.47 1463.2600000000002 1070.95 1463.2600000000002 C 1078.3700000000001 1463.2600000000002 1084.38 1465.4600000000003 1089 1469.8500000000001 C 1091.76 1472.44 1093.82 1476.15 1095.2 1481.0300000000002 L 1083.1100000000001 1483.9 C 1082.4 1480.77 1080.9 1478.2900000000002 1078.64 1476.47 C 1076.3500000000001 1474.66 1073.5900000000001 1473.76 1070.3500000000001 1473.76 C 1065.8600000000001 1473.76 1062.21 1475.37 1059.42 1478.59 C 1056.6100000000001 1481.8 1055.22 1487.01 1055.22 1494.23 C 1055.22 1501.8700000000001 1056.6000000000001 1507.33 1059.3500000000001 1510.56 C 1062.1100000000001 1513.81 1065.69 1515.44 1070.1000000000001 1515.44 C 1073.3600000000001 1515.44 1076.16 1514.41 1078.5000000000002 1512.3500000000001 C 1080.8400000000001 1510.2700000000002 1082.5300000000002 1507.0300000000002 1083.5500000000002 1502.5900000000001 z M 1120.3999999999999 1495.0000000000002 C 1120.3999999999999 1488.8300000000002 1121.34 1483.6400000000003 1123.1899999999998 1479.4400000000003 C 1124.5499999999997 1476.3500000000004 1126.4399999999998 1473.5700000000004 1128.8099999999997 1471.1200000000003 C 1131.1899999999998 1468.6700000000003 1133.8099999999997 1466.8500000000004 1136.6399999999996 1465.6600000000003 C 1140.4099999999996 1464.0700000000004 1144.7599999999995 1463.2600000000002 1149.6899999999996 1463.2600000000002 C 1158.6299999999997 1463.2600000000002 1165.7599999999995 1466.0400000000002 1171.1299999999997 1471.5800000000002 C 1176.4899999999996 1477.13 1179.1599999999996 1484.8300000000002 1179.1599999999996 1494.7200000000003 C 1179.1599999999996 1504.5100000000002 1176.4899999999996 1512.1700000000003 1171.1899999999996 1517.7000000000003 C 1165.8599999999997 1523.2400000000002 1158.7499999999995 1526.0000000000002 1149.8499999999997 1526.0000000000002 C 1140.8499999999997 1526.0000000000002 1133.6699999999996 1523.2500000000002 1128.3699999999997 1517.7400000000002 C 1123.0499999999997 1512.2400000000002 1120.3899999999996 1504.6600000000003 1120.3899999999996 1494.9900000000002 z M 1132.9999999999998 1494.5900000000001 C 1132.9999999999998 1501.45 1134.5999999999997 1506.65 1137.7599999999998 1510.2 C 1140.9299999999998 1513.73 1144.9599999999998 1515.51 1149.8399999999997 1515.51 C 1154.7299999999998 1515.51 1158.7199999999998 1513.76 1161.8799999999997 1510.24 C 1164.9999999999995 1506.71 1166.5699999999997 1501.45 1166.5699999999997 1494.41 C 1166.5699999999997 1487.46 1165.0599999999997 1482.28 1161.9899999999998 1478.8700000000001 C 1158.9499999999998 1475.45 1154.8999999999999 1473.74 1149.8399999999997 1473.74 C 1144.7999999999997 1473.74 1140.7299999999998 1475.47 1137.6399999999996 1478.92 C 1134.5499999999997 1482.38 1132.9999999999995 1487.6000000000001 1132.9999999999995 1494.5800000000002 z M 1205.7799999999997 1524.89 L 1205.7799999999997 1464.3600000000001 L 1225.3799999999997 1464.3600000000001 C 1232.8099999999997 1464.3600000000001 1237.6499999999996 1464.65 1239.8899999999996 1465.2600000000002 C 1243.3599999999997 1466.1800000000003 1246.2599999999995 1468.1500000000003 1248.5999999999997 1471.1900000000003 C 1250.9399999999996 1474.2400000000002 1252.1099999999997 1478.1700000000003 1252.1099999999997 1482.9800000000002 C 1252.1099999999997 1486.7100000000003 1251.4399999999996 1489.8200000000002 1250.0899999999997 1492.3500000000001 C 1248.7399999999998 1494.89 1247.0299999999997 1496.88 1244.9599999999996 1498.3300000000002 C 1242.8899999999996 1499.7700000000002 1240.7799999999995 1500.7300000000002 1238.6399999999996 1501.19 C 1235.7199999999996 1501.77 1231.5099999999995 1502.0700000000002 1225.9799999999996 1502.0700000000002 L 1218.0399999999995 1502.0700000000002 L 1218.0399999999995 1524.89 L 1205.7799999999995 1524.89 z M 1218.0399999999997 1474.6000000000001 L 1218.0399999999997 1491.8400000000001 L 1224.6999999999998 1491.8400000000001 C 1229.5099999999998 1491.8400000000001 1232.6999999999998 1491.5200000000002 1234.33 1490.88 C 1235.9499999999998 1490.25 1237.22 1489.2600000000002 1238.1299999999999 1487.9 C 1239.05 1486.5500000000002 1239.51 1484.98 1239.51 1483.18 C 1239.51 1480.97 1238.87 1479.15 1237.57 1477.71 C 1236.28 1476.27 1234.6699999999998 1475.3700000000001 1232.6799999999998 1475 C 1231.2299999999998 1474.74 1228.31 1474.6 1223.9099999999999 1474.6 L 1218.04 1474.6 z M 1327.4899999999998 1524.89 L 1314.2799999999997 1524.89 L 1309.0499999999997 1511.1100000000001 L 1284.7799999999997 1511.1100000000001 L 1279.7399999999998 1524.89 L 1266.7699999999998 1524.89 L 1290.2699999999998 1464.3600000000001 L 1303.2299999999998 1464.3600000000001 L 1327.4799999999998 1524.89 z M 1305.0899999999997 1500.89 L 1296.6699999999996 1478.49 L 1288.4999999999995 1500.89 L 1305.0899999999995 1500.89 z M 1351.4199999999996 1524.89 L 1351.4199999999996 1464.8700000000001 L 1363.6799999999996 1464.8700000000001 L 1363.6799999999996 1514.67 L 1394.0299999999995 1514.67 L 1394.0299999999995 1524.9 L 1351.4199999999996 1524.9 z" stroke-linecap="round" />
</g>
</svg>